<?xml version="1.0" encoding="utf-8"?>
<!-- Generator: Adobe Illustrator 22.0.0, SVG Export Plug-In . SVG Version: 6.00 Build 0)  -->
<svg version="1.1" id="图层_1" xmlns="http://www.w3.org/2000/svg" xmlns:xlink="http://www.w3.org/1999/xlink" x="0px" y="0px"
	 viewBox="0 0 26 14.3" style="enable-background:new 0 0 26 14.3;" xml:space="preserve">
<style type="text/css">
	.st0{fill:url(#SVGID_1_);}
	.st1{fill:url(#SVGID_2_);}
	.st2{fill:url(#SVGID_3_);}
	.st3{fill:url(#SVGID_4_);}
</style>
<g>
	<linearGradient id="SVGID_1_" gradientUnits="userSpaceOnUse" x1="2.9572" y1="-0.6437" x2="25.9329" y2="10.9546">
		<stop  offset="0" style="stop-color:#5DCFFE"/>
		<stop  offset="1" style="stop-color:#1090FD"/>
	</linearGradient>
	<path class="st0" d="M24.9,12.2c-0.1-0.1-0.3-0.2-0.6-0.2h-10V3h9.6c0.3,0,0.5-0.1,0.7-0.3c0.2-0.2,0.3-0.4,0.3-0.7V1.2H13
		c-0.1,0-0.3,0.1-0.3,0.1c-0.1,0.1-0.1,0.2-0.1,0.3V13h0c0,0.2,0.1,0.3,0.2,0.4c0.1,0.1,0.3,0.2,0.4,0.2h12v-0.8
		C25.1,12.6,25,12.4,24.9,12.2z M12.7,13C12.7,13,12.7,13,12.7,13L12.7,13L12.7,13z"/>
	<linearGradient id="SVGID_2_" gradientUnits="userSpaceOnUse" x1="2.9775" y1="-0.684" x2="25.9533" y2="10.9143">
		<stop  offset="0" style="stop-color:#5DCFFE"/>
		<stop  offset="1" style="stop-color:#1090FD"/>
	</linearGradient>
	<path class="st1" d="M22.8,9.4c-0.7-0.7-1.4-1.3-2.1-1.9l0,0c0,0,0,0,0,0v0l0,0c0.5-0.5,1.1-1.2,1.9-2.2c0.1-0.2,0.2-0.3,0.3-0.4
		L23,4.7l-0.8-0.5c-0.1-0.1-0.2-0.1-0.4-0.1c-0.1,0-0.2,0-0.3,0.1c-0.1,0-0.2,0.1-0.2,0.2c-0.5,0.7-1.1,1.4-1.7,2
		c-0.6-0.6-1.2-1.1-1.9-1.7c-0.2-0.2-0.5-0.3-0.7-0.3c-0.3,0-0.5,0.1-0.7,0.3L15.8,5L16,5.1c0.9,0.7,1.7,1.5,2.5,2.3
		c-0.6,0.5-1.2,1.1-2,1.7c-0.1,0.1-0.2,0.2-0.3,0.4c-0.1,0.1-0.1,0.3-0.1,0.4c0,0.2,0.1,0.5,0.3,0.7c0.1,0.1,0.2,0.2,0.2,0.3
		l0.1,0.1l0.1-0.1c0.9-0.7,1.8-1.5,2.8-2.5c0.8,0.8,1.6,1.6,2.4,2.4l0.1,0.1l0.1-0.1l0,0l0.6-0.5c0.1-0.1,0.1-0.2,0.2-0.2
		C23,10.1,23,10,23,9.9C23,9.7,23,9.5,22.8,9.4z"/>
	<linearGradient id="SVGID_3_" gradientUnits="userSpaceOnUse" x1="-0.407" y1="6.0207" x2="22.5687" y2="17.619">
		<stop  offset="0" style="stop-color:#5DCFFE"/>
		<stop  offset="1" style="stop-color:#1090FD"/>
	</linearGradient>
	<path class="st2" d="M2.8,1.8L2.8,1.8c0-0.7-0.5-1.2-1.2-1.2H1.5C1.4,0.6,1.2,0.8,1.2,1v0.9c0,0,0,0,0,0c0,0,0,0,0,0v11.3h0
		c0,0,0,0.1,0,0.1c0,0,0,0.1,0.1,0.1c0,0,0.1,0.1,0.1,0.1c0.1,0,0.2,0.1,0.3,0.1c0.1,0,0.2,0,0.3,0c0.1,0,0.2,0,0.3,0
		c0.1,0,0.1,0,0.2,0c0.1,0,0.2-0.1,0.2-0.1c0,0,0.1-0.1,0.1-0.1c0,0,0-0.1,0-0.1L2.8,1.8C2.8,1.9,2.8,1.8,2.8,1.8z"/>
	<linearGradient id="SVGID_4_" gradientUnits="userSpaceOnUse" x1="0.8886" y1="3.4541" x2="23.8643" y2="15.0524">
		<stop  offset="0" style="stop-color:#5DCFFE"/>
		<stop  offset="1" style="stop-color:#1090FD"/>
	</linearGradient>
	<path class="st3" d="M10.7,3c0-0.7-0.3-1.3-0.7-1.7C9.6,0.9,9,0.6,8.3,0.6v0c0,0,0,0,0,0v0H8.1c0,0-0.1,0-0.1,0H7.3
		C7.1,0.6,7,0.8,7,0.9c0,0.4,0.2,0.8,0.5,1C7.6,2,7.7,2,7.8,2.1c0.1,0,0.2,0,0.3,0c0,0,0.1,0,0.1,0c0.3,0,0.5,0.1,0.7,0.3
		C9,2.5,9.1,2.8,9.1,3v2.4c0,0.3-0.1,0.5-0.3,0.7C8.7,6.2,8.4,6.3,8.2,6.3H8c-0.3,0-0.5-0.1-0.7-0.3C7.2,5.9,7,5.7,7,5.4V3.3l0,0
		c0,0,0,0,0,0c0-0.6-0.5-1.1-1.1-1.1H5.8c-0.2,0-0.3,0.1-0.3,0.3v0.8c0,0,0,0,0,0v2.1c0,0.7,0.3,1.3,0.7,1.7c0.4,0.4,1,0.7,1.7,0.7
		h0.3c0.3,0,0.5,0.1,0.7,0.3C9,8.3,9.1,8.5,9.1,8.8v2.4c0,0.3-0.1,0.5-0.3,0.7c-0.2,0.2-0.4,0.3-0.7,0.3H8c-0.3,0-0.5-0.1-0.7-0.3
		C7.2,11.6,7,11.4,7,11.1V9l0,0c0-0.6-0.5-1.1-1.1-1.1H5.8c-0.2,0-0.3,0.1-0.3,0.3v0.8c0,0,0,0,0,0v2.1c0,0.7,0.3,1.3,0.7,1.7
		c0.4,0.4,1,0.7,1.7,0.7h0.4c0.7,0,1.3-0.3,1.7-0.7c0.4-0.4,0.7-1,0.7-1.7V8.7c0-0.6-0.3-1.2-0.7-1.6c0.4-0.4,0.7-1,0.7-1.6V3z"/>
</g>
</svg>
